<svg xmlns="http://www.w3.org/2000/svg" viewBox="0 0 656 355"><path d="M 297,164 294,167 294,168 293,169 293,170 292,171 292,174 291,175 291,177 290,178 290,183 291,184 291,185 292,186 292,187 293,188 293,189 294,190 294,191 297,194 297,196 294,199 293,199 291,201 290,201 289,202 285,202 283,200 282,200 281,199 280,200 279,200 278,201 279,202 279,204 280,205 279,206 279,207 280,208 280,210 282,212 282,214 284,216 284,217 285,218 285,219 286,220 286,221 288,223 288,224 290,226 290,228 291,229 291,231 290,232 290,233 289,234 289,235 288,236 287,236 286,237 285,237 284,238 275,238 270,233 269,233 266,230 266,229 265,228 265,227 264,226 264,225 263,224 263,223 262,222 262,221 261,220 261,218 260,217 260,215 259,214 259,213 257,211 257,209 255,207 253,207 253,216 252,217 252,219 253,220 253,225 254,226 254,227 255,228 255,231 256,232 256,237 257,238 257,239 259,239 260,238 265,238 266,239 267,239 269,241 271,241 272,242 273,242 274,243 277,243 278,244 285,244 286,243 287,243 288,242 289,242 294,237 294,235 295,234 295,231 296,230 296,219 295,218 295,216 294,215 294,213 293,212 293,211 291,209 291,206 294,203 295,203 299,199 300,199 301,198 306,198 307,199 310,199 311,200 313,200 315,202 315,204 313,206 313,207 311,209 311,220 312,221 312,222 313,223 314,223 315,224 316,224 317,225 318,225 319,226 324,226 325,225 326,225 329,222 330,222 337,215 337,214 338,213 338,207 337,206 337,205 335,203 334,203 333,202 332,202 331,201 330,201 329,200 326,200 324,198 323,198 320,195 320,194 319,194 318,195 313,195 312,194 310,194 307,191 307,186 308,185 308,181 309,180 309,179 308,178 308,177 307,176 307,175 306,174 306,170 304,168 304,167 301,164 Z" fill="black" stroke="black" stroke-width="1"/>
<path d="M 118,146 117,147 114,147 113,148 112,148 111,149 108,149 107,150 106,150 105,151 104,151 103,152 102,152 101,153 100,153 98,155 97,155 96,156 95,156 89,162 89,163 88,164 87,164 85,166 85,167 84,168 84,169 82,171 82,172 81,173 81,174 80,175 80,176 79,177 79,178 78,179 78,180 76,182 76,185 75,186 75,188 74,189 74,191 73,192 73,194 72,195 72,197 71,198 71,200 70,201 70,205 69,206 69,211 68,212 68,220 67,221 67,228 68,229 68,238 69,239 69,242 70,243 70,246 71,247 71,249 72,250 72,254 73,255 73,256 74,257 74,258 75,259 75,261 77,263 77,264 78,265 78,266 80,268 80,272 81,273 82,273 87,278 87,279 91,283 92,283 93,284 93,285 96,288 97,288 100,291 101,291 102,292 104,292 105,293 106,293 107,294 108,294 110,296 112,296 113,297 114,297 115,298 118,298 119,299 125,299 126,300 131,300 132,299 144,299 145,298 148,298 149,297 151,297 152,296 154,296 155,295 157,295 158,294 159,294 160,293 162,293 163,292 164,292 166,290 168,290 169,289 171,289 173,287 174,287 177,284 178,284 181,281 183,281 184,280 185,280 186,279 187,279 194,272 194,271 196,269 196,268 201,263 202,263 205,260 206,260 207,259 207,256 209,254 211,254 213,256 213,257 214,258 214,259 215,260 215,263 216,264 216,265 219,268 219,269 221,271 221,272 222,272 223,273 224,273 225,274 228,274 229,273 229,271 228,271 224,267 224,266 223,265 223,264 222,263 222,262 221,261 221,260 220,259 220,258 219,257 219,255 220,254 220,252 224,248 225,248 226,249 227,249 228,250 229,250 230,251 231,251 232,252 234,252 235,253 244,253 245,252 249,252 250,251 252,251 253,250 253,249 255,247 251,247 250,248 244,248 243,249 242,249 241,248 239,248 238,247 235,247 233,245 232,245 228,241 228,240 227,239 227,236 228,235 228,233 229,232 229,230 230,229 230,227 231,226 231,225 232,224 232,222 234,220 235,220 236,221 239,221 239,220 240,219 240,218 241,217 241,216 242,215 242,213 243,212 243,208 242,207 242,206 241,205 241,204 239,202 239,201 235,197 232,197 231,198 231,199 230,200 230,202 229,203 229,204 228,205 228,210 227,211 227,214 226,215 226,217 225,218 225,222 224,223 224,224 220,228 218,228 217,227 213,227 212,226 211,226 210,225 210,224 209,223 209,216 210,215 210,209 209,208 209,207 208,206 208,205 207,205 205,203 198,203 197,204 197,205 196,206 196,209 195,210 195,213 197,215 197,216 199,218 199,219 200,220 200,221 202,223 202,224 203,225 203,228 204,229 204,230 205,231 205,232 206,233 206,237 207,238 207,240 208,241 208,244 209,245 209,249 208,250 208,251 201,258 201,259 200,260 199,260 197,262 196,262 195,263 194,263 194,264 193,265 193,267 191,269 191,270 189,272 189,273 188,274 187,274 185,276 184,276 180,280 179,280 178,281 177,281 176,282 175,282 174,283 173,283 172,284 171,284 170,285 169,285 168,286 167,286 165,288 162,288 161,289 160,289 159,290 158,290 157,291 152,291 151,292 147,292 146,293 142,293 141,294 127,294 126,293 121,293 120,292 118,292 117,291 115,291 114,290 113,290 112,289 111,289 110,288 109,288 108,287 107,287 104,284 103,284 102,283 101,283 91,273 91,272 87,268 87,267 85,265 85,264 84,263 84,262 83,261 83,260 82,259 82,258 81,257 81,255 79,253 79,250 78,249 78,247 77,246 77,241 76,240 76,236 75,235 75,227 74,226 74,215 75,214 75,211 76,210 76,204 77,203 77,202 78,201 78,198 79,197 79,195 80,194 80,191 82,189 82,188 83,187 83,184 84,183 84,182 85,181 85,180 86,179 86,178 89,175 90,175 90,174 92,172 92,169 98,163 100,163 101,162 103,162 108,157 109,157 111,155 112,155 113,154 114,154 115,153 119,153 120,154 121,154 122,155 123,155 124,156 131,156 132,155 133,155 134,154 136,154 139,157 141,157 142,158 143,158 145,160 146,160 147,161 148,161 152,165 152,166 159,173 159,174 160,175 160,176 164,180 164,181 165,182 165,183 167,185 167,186 168,187 168,188 169,189 169,192 168,193 168,202 169,203 169,215 168,216 168,218 165,221 155,221 154,220 153,220 152,219 151,219 150,218 149,218 147,216 146,216 144,214 143,214 131,202 131,201 130,201 121,192 121,191 120,190 119,190 117,188 115,188 114,187 111,187 110,188 110,189 109,190 109,195 110,196 110,200 108,202 105,202 104,203 104,205 103,206 103,210 104,211 104,216 105,217 105,218 106,219 106,220 107,221 107,223 109,225 109,226 110,227 110,228 111,229 111,232 112,233 112,235 113,236 113,237 114,238 114,241 115,242 115,243 116,244 116,247 117,248 117,251 118,252 118,255 119,256 119,257 120,258 120,259 122,261 123,261 123,252 122,251 122,246 121,245 121,242 120,241 120,236 119,235 119,233 118,232 118,225 117,224 117,221 116,220 116,219 117,218 117,217 120,214 120,210 119,209 119,206 118,205 118,204 117,203 116,203 114,201 114,200 115,199 118,199 119,200 119,201 120,201 122,203 123,203 124,204 124,205 127,208 128,208 129,209 129,210 130,211 130,212 131,212 132,213 133,213 137,217 138,217 140,219 141,219 145,223 146,223 147,224 148,224 149,225 150,225 151,226 154,226 155,227 163,227 164,226 167,226 168,225 169,225 172,222 172,221 173,220 173,219 174,218 174,213 175,212 175,210 176,209 175,208 175,200 174,199 174,196 173,195 173,193 172,192 172,191 171,190 171,189 170,188 170,186 169,185 169,182 168,181 168,180 167,179 167,178 165,176 165,175 164,174 164,173 162,171 162,170 157,165 157,164 153,160 153,159 152,159 148,155 147,155 145,153 144,153 142,151 141,151 140,150 139,150 137,148 136,148 135,147 132,147 131,146 Z" fill="black" stroke="black" stroke-width="1"/>
<path d="M 578,70 576,72 576,79 577,80 577,81 581,85 581,86 584,89 584,90 585,91 585,92 586,93 586,97 587,98 584,101 583,101 582,102 578,102 577,103 570,103 568,101 568,99 567,98 567,90 568,89 567,88 567,82 566,81 566,80 565,79 565,78 562,75 558,75 557,76 556,76 553,79 553,80 552,81 552,84 551,85 551,89 550,90 550,91 551,92 551,96 552,97 552,100 553,101 553,102 558,107 559,107 563,111 563,114 564,115 568,111 569,111 570,110 573,110 574,109 577,109 578,108 579,108 580,107 582,107 583,106 585,106 587,104 588,104 590,102 590,101 593,98 594,98 595,99 596,99 598,101 599,101 600,102 602,102 603,103 606,103 607,104 609,104 610,103 610,102 609,102 608,101 607,101 603,97 602,97 596,91 596,90 594,88 594,87 593,86 593,85 591,83 591,82 589,80 589,79 586,76 586,75 581,70 Z" fill="black" stroke="black" stroke-width="1"/>
<path d="M 480,70 479,71 479,72 480,73 480,78 481,79 481,80 482,81 482,82 483,83 483,85 484,86 484,87 486,89 486,90 488,92 488,93 490,95 490,96 491,97 491,98 494,101 494,102 495,103 495,104 496,105 496,106 498,108 498,109 499,110 499,111 503,115 503,116 504,117 504,119 505,120 505,124 506,125 506,127 507,128 507,131 508,132 508,133 506,135 499,135 496,132 496,131 494,129 494,126 493,125 493,124 491,122 491,121 490,120 490,119 488,117 488,116 487,115 487,114 486,113 486,112 484,110 483,110 482,109 481,110 480,110 479,111 479,121 478,122 475,119 474,119 472,117 471,117 470,116 467,116 460,123 460,124 459,125 459,127 458,128 458,130 457,131 457,132 455,134 449,134 448,133 447,133 446,132 442,132 441,133 441,134 440,135 440,138 441,139 441,140 442,141 443,141 444,142 445,142 446,143 447,143 451,147 451,148 452,149 452,150 453,151 453,153 449,157 448,157 447,158 446,158 445,159 444,159 443,160 441,160 440,161 435,161 434,160 433,160 432,159 432,158 430,156 430,154 429,153 429,152 428,151 428,150 427,149 426,149 425,148 422,148 420,150 420,156 421,157 421,158 422,159 422,160 423,161 423,162 425,164 425,170 421,174 420,174 419,175 417,175 416,176 411,176 410,175 406,175 405,174 404,174 403,173 402,173 398,169 398,168 396,166 396,164 394,162 394,161 392,159 392,158 391,157 388,157 388,161 389,162 389,168 388,169 388,172 389,173 389,174 392,177 392,178 393,179 393,184 394,185 394,187 391,190 385,190 384,189 383,189 377,183 377,182 374,179 374,178 372,176 372,175 368,171 367,171 365,169 364,169 363,168 362,168 361,167 357,167 356,168 355,168 354,169 354,170 353,171 353,172 352,173 352,175 351,176 351,179 350,180 350,183 349,184 349,185 348,186 348,187 346,189 345,189 342,186 342,185 340,183 340,182 338,180 338,179 336,177 336,176 335,175 335,174 334,173 334,165 333,164 333,161 332,161 331,160 331,159 332,158 332,154 331,153 331,151 330,150 330,149 329,148 329,147 328,146 328,145 324,141 323,142 322,142 321,143 321,153 322,154 322,157 323,158 323,160 324,161 324,162 325,163 325,164 326,165 326,167 327,168 327,170 328,171 328,174 329,175 329,179 334,184 334,185 337,188 337,189 340,192 340,194 342,196 342,197 343,198 344,198 345,199 345,201 346,202 346,203 347,204 347,205 351,209 351,210 353,212 353,213 354,214 354,215 357,218 359,218 360,217 360,213 359,212 359,197 358,196 358,194 357,193 357,191 356,190 356,189 355,188 355,187 354,186 354,181 355,180 355,177 356,176 357,176 358,175 360,175 363,178 363,179 365,179 370,184 370,185 372,187 373,187 375,189 376,189 380,193 381,193 382,194 390,194 391,193 393,193 395,191 395,190 396,189 396,186 397,185 397,182 399,180 400,180 401,179 402,179 403,180 408,180 409,181 419,181 420,180 421,180 423,178 424,178 425,177 426,177 428,175 428,174 429,173 429,172 430,171 430,170 433,167 435,167 436,166 442,166 444,164 445,164 446,163 447,163 448,162 449,162 451,160 452,160 455,157 455,156 456,155 456,154 457,153 459,153 460,154 461,154 464,157 469,157 470,158 473,158 474,157 478,157 480,155 481,155 483,153 484,153 485,152 486,152 487,151 488,151 489,150 490,150 492,148 492,147 494,145 494,144 496,142 497,142 498,141 499,141 500,140 507,140 508,139 509,139 511,137 512,137 513,136 514,136 518,140 520,140 521,141 523,139 523,138 524,137 523,136 523,134 522,133 522,132 521,131 521,130 520,129 520,128 519,127 519,126 518,125 518,123 517,122 517,118 516,117 516,113 515,112 515,108 517,106 517,104 518,103 520,103 520,102 521,101 522,101 523,100 526,100 529,103 530,103 531,104 532,104 533,103 534,103 540,109 540,110 542,112 542,113 543,113 548,118 548,119 549,119 550,120 551,120 553,122 555,122 556,123 560,123 562,121 562,120 563,119 563,117 562,117 561,118 560,118 559,119 558,119 557,118 556,118 548,110 548,109 545,106 545,105 543,103 543,102 542,101 542,100 537,95 536,95 534,93 532,93 531,92 526,92 525,93 524,93 523,94 522,94 521,95 520,95 519,96 518,96 515,99 514,99 510,103 510,104 508,106 506,106 504,104 504,103 502,101 502,100 499,97 499,96 496,93 496,92 494,90 494,89 493,88 493,86 491,84 491,83 490,82 490,80 488,78 488,77 486,75 486,74 482,70 Z" fill="black" stroke="black" stroke-width="1"/>
</svg>